<mxfile host="app.diagrams.net" agent="Mozilla/5.0 (Windows NT 10.0; Win64; x64) AppleWebKit/537.36 (KHTML, like Gecko) Chrome/130.0.0.0 Safari/537.36" version="24.8.3">
  <diagram name="第 1 页" id="aVfJHBUcrF4N1wstIHGT">
    <mxGraphModel dx="1562" dy="891" grid="1" gridSize="10" guides="1" tooltips="1" connect="1" arrows="1" fold="1" page="1" pageScale="1" pageWidth="1169" pageHeight="827" math="0" shadow="0">
      <root>
        <mxCell id="0" />
        <mxCell id="1" parent="0" />
        <mxCell id="VdDExWUPN82SYtzfGIfn-2" value="&lt;font color=&quot;#ffffff&quot; style=&quot;font-size: 14px;&quot;&gt;Flatten&lt;/font&gt;" style="rounded=1;whiteSpace=wrap;html=1;fillColor=#2C7FB3;strokeColor=#003366;" vertex="1" parent="1">
          <mxGeometry x="400" y="610" width="160" height="30" as="geometry" />
        </mxCell>
        <mxCell id="VdDExWUPN82SYtzfGIfn-3" value="&lt;font color=&quot;#ffffff&quot; style=&quot;font-size: 14px;&quot;&gt;Batch Normalization&lt;/font&gt;" style="rounded=1;whiteSpace=wrap;html=1;fillColor=#2C7FB3;strokeColor=#003366;" vertex="1" parent="1">
          <mxGeometry x="400" y="510" width="160" height="30" as="geometry" />
        </mxCell>
        <mxCell id="VdDExWUPN82SYtzfGIfn-4" value="&lt;span style=&quot;color: rgb(255, 255, 255); font-size: 14px;&quot;&gt;FC-100 Linear&lt;/span&gt;" style="rounded=1;whiteSpace=wrap;html=1;fillColor=#2C7FB3;strokeColor=#003366;" vertex="1" parent="1">
          <mxGeometry x="400" y="570" width="160" height="30" as="geometry" />
        </mxCell>
        <mxCell id="VdDExWUPN82SYtzfGIfn-5" value="&lt;font face=&quot;Helvetica&quot; style=&quot;font-size: 14px;&quot;&gt;&lt;b style=&quot;&quot;&gt;Dropout-0.5&lt;/b&gt;&lt;/font&gt;" style="rounded=0;whiteSpace=wrap;html=1;strokeColor=#2C7FB3;" vertex="1" parent="1">
          <mxGeometry x="400" y="550" width="160" height="20" as="geometry" />
        </mxCell>
        <mxCell id="VdDExWUPN82SYtzfGIfn-7" value="&lt;font color=&quot;#ffffff&quot; style=&quot;font-size: 14px;&quot;&gt;Relu&lt;/font&gt;" style="rounded=1;whiteSpace=wrap;html=1;fillColor=#2C7FB3;strokeColor=#003366;" vertex="1" parent="1">
          <mxGeometry x="400" y="470" width="160" height="30" as="geometry" />
        </mxCell>
        <mxCell id="VdDExWUPN82SYtzfGIfn-8" value="&lt;span style=&quot;color: rgb(255, 255, 255); font-size: 14px;&quot;&gt;FC-50 Linear&lt;/span&gt;" style="rounded=1;whiteSpace=wrap;html=1;fillColor=#2C7FB3;strokeColor=#003366;" vertex="1" parent="1">
          <mxGeometry x="400" y="430" width="160" height="30" as="geometry" />
        </mxCell>
        <mxCell id="VdDExWUPN82SYtzfGIfn-9" value="&lt;font face=&quot;Helvetica&quot; style=&quot;font-size: 14px;&quot;&gt;&lt;b style=&quot;&quot;&gt;Dropout-0.5&lt;/b&gt;&lt;/font&gt;" style="rounded=0;whiteSpace=wrap;html=1;strokeColor=#2C7FB3;" vertex="1" parent="1">
          <mxGeometry x="400" y="410" width="160" height="20" as="geometry" />
        </mxCell>
        <mxCell id="VdDExWUPN82SYtzfGIfn-10" value="&lt;font color=&quot;#ffffff&quot; style=&quot;font-size: 14px;&quot;&gt;Batch Normalization&lt;/font&gt;" style="rounded=1;whiteSpace=wrap;html=1;fillColor=#2C7FB3;strokeColor=#003366;" vertex="1" parent="1">
          <mxGeometry x="400" y="370" width="160" height="30" as="geometry" />
        </mxCell>
        <mxCell id="VdDExWUPN82SYtzfGIfn-11" value="&lt;font color=&quot;#ffffff&quot; style=&quot;font-size: 14px;&quot;&gt;Relu&lt;/font&gt;" style="rounded=1;whiteSpace=wrap;html=1;fillColor=#2C7FB3;strokeColor=#003366;" vertex="1" parent="1">
          <mxGeometry x="400" y="330" width="160" height="30" as="geometry" />
        </mxCell>
        <mxCell id="VdDExWUPN82SYtzfGIfn-12" value="&lt;span style=&quot;color: rgb(255, 255, 255); font-size: 14px;&quot;&gt;FC-10 Linear&lt;/span&gt;" style="rounded=1;whiteSpace=wrap;html=1;fillColor=#2C7FB3;strokeColor=#003366;" vertex="1" parent="1">
          <mxGeometry x="400" y="290" width="160" height="30" as="geometry" />
        </mxCell>
        <mxCell id="VdDExWUPN82SYtzfGIfn-13" value="&lt;font face=&quot;Helvetica&quot; style=&quot;font-size: 14px;&quot;&gt;&lt;b style=&quot;&quot;&gt;Dropout-0.5&lt;/b&gt;&lt;/font&gt;" style="rounded=0;whiteSpace=wrap;html=1;strokeColor=#2C7FB3;" vertex="1" parent="1">
          <mxGeometry x="400" y="270" width="160" height="20" as="geometry" />
        </mxCell>
        <mxCell id="VdDExWUPN82SYtzfGIfn-14" value="&lt;font color=&quot;#ffffff&quot; style=&quot;font-size: 14px;&quot;&gt;Batch Normalization&lt;/font&gt;" style="rounded=1;whiteSpace=wrap;html=1;fillColor=#2C7FB3;strokeColor=#003366;" vertex="1" parent="1">
          <mxGeometry x="400" y="230" width="160" height="30" as="geometry" />
        </mxCell>
        <mxCell id="VdDExWUPN82SYtzfGIfn-15" value="&lt;font color=&quot;#ffffff&quot; style=&quot;font-size: 14px;&quot;&gt;Relu&lt;/font&gt;" style="rounded=1;whiteSpace=wrap;html=1;fillColor=#2C7FB3;strokeColor=#003366;" vertex="1" parent="1">
          <mxGeometry x="400" y="190" width="160" height="30" as="geometry" />
        </mxCell>
        <mxCell id="VdDExWUPN82SYtzfGIfn-16" value="&lt;span style=&quot;color: rgb(255, 255, 255); font-size: 14px;&quot;&gt;FC-1 Linear&lt;/span&gt;" style="rounded=1;whiteSpace=wrap;html=1;fillColor=#2C7FB3;strokeColor=#003366;" vertex="1" parent="1">
          <mxGeometry x="400" y="150" width="160" height="30" as="geometry" />
        </mxCell>
        <mxCell id="VdDExWUPN82SYtzfGIfn-23" value="&lt;font color=&quot;#003366&quot; style=&quot;font-size: 14px;&quot;&gt;Input&lt;/font&gt;" style="rounded=1;whiteSpace=wrap;html=1;fillColor=#FFFFFF;strokeColor=#003366;" vertex="1" parent="1">
          <mxGeometry x="400" y="650" width="160" height="30" as="geometry" />
        </mxCell>
        <mxCell id="VdDExWUPN82SYtzfGIfn-24" value="&lt;font color=&quot;#003366&quot; style=&quot;font-size: 14px;&quot;&gt;Output&lt;/font&gt;" style="rounded=1;whiteSpace=wrap;html=1;fillColor=#FFFFFF;strokeColor=#003366;" vertex="1" parent="1">
          <mxGeometry x="400" y="110" width="160" height="30" as="geometry" />
        </mxCell>
      </root>
    </mxGraphModel>
  </diagram>
</mxfile>
